<svg width="130" height="101" viewBox="0 0 130 101" fill="none" xmlns="http://www.w3.org/2000/svg">
<path d="M0 90.1786C0 96.1529 4.8471 101 10.8214 101H119.036C125.01 101 129.857 96.1529 129.857 90.1786V89.9306H115.947L108.755 82.0174L101.564 89.9306H55.6402V53.0025H40.8058L59.2248 11.3625H76.9449L83.2799 25.6107V11.3625H105.193L109.003 22.0938L112.836 11.3625H129.857V10.8214C129.857 4.8471 125.01 0 119.036 0H10.8214C4.8471 0 0 4.8471 0 10.8214V90.1786ZM99.2866 85.2864L108.8 74.8482L118.269 85.2864H129.857L114.527 69.0317L129.857 52.777H118.45L108.981 63.3054L99.6248 52.777H88.0368L103.254 69.1219L88.0594 85.2638V77.8016H69.3473V72.7967H87.5859V65.5147H69.3473V60.4647H88.0594V53.0025H60.5549V85.2864H99.2866ZM120.997 69.0542L129.857 78.5005V59.7208L120.997 69.0542ZM112.813 48.3132L121.132 25.6333V48.3132H129.857V16.0067H116.285L109.026 36.1391L101.834 16.0067H88.0368V48.2681L73.7886 16.0067H62.2458L48.1779 48.3132H57.8721L60.5549 41.8429H75.4118L78.1172 48.3132H96.7616V25.7009L105.058 48.3132H112.813ZM63.5759 34.5835L67.9721 24.01L72.3458 34.5835H63.5759Z" fill="white"/>
</svg>
