<svg width="162" height="100" viewBox="0 0 162 100" fill="none" xmlns="http://www.w3.org/2000/svg">
<path d="M59.0277 10.6941H102.777V89.3051H59.0277V10.6941Z" fill="#FF5F00"/>
<path d="M61.8058 50C61.8058 34.028 69.3056 19.8611 80.833 10.6942C72.3614 4.02764 61.6672 0 50.0006 0C22.3608 0 0 22.3608 0 50C0 77.6392 22.3608 100 50 100C61.6666 100 72.3608 95.9724 80.833 89.3052C69.3056 80.2775 61.8058 65.972 61.8058 50Z" fill="#EB001B"/>
<path d="M161.805 50C161.805 77.6386 139.444 100 111.805 100C100.139 100 89.4444 95.9724 80.9722 89.3052C92.6388 80.1389 100 65.972 100 50C100 34.028 92.4996 19.8611 80.9722 10.6942C89.4437 4.02764 100.139 0 111.805 0C139.444 0 161.805 22.5 161.805 50Z" fill="#F79E1B"/>
</svg>
