<svg width="206" height="67" viewBox="0 0 206 67" fill="none" xmlns="http://www.w3.org/2000/svg">
<path d="M106.538 21.2662C106.421 30.533 114.797 35.7039 121.106 38.7786C127.589 41.933 129.766 43.956 129.741 46.7772C129.692 51.0944 124.57 52.9999 119.776 53.0739C111.413 53.2035 106.55 50.816 102.685 49.0102L99.6718 63.1076C103.55 64.8948 110.732 66.4535 118.18 66.5219C135.661 66.5219 147.098 57.8924 147.16 44.5128C147.229 27.5323 123.673 26.5925 123.834 19.0026C123.89 16.7012 126.086 14.2453 130.898 13.6209C133.28 13.3055 139.855 13.064 147.309 16.4968L150.235 2.85739C146.226 1.39769 141.074 -5.50747e-05 134.659 -5.50747e-05C118.205 -5.50747e-05 106.632 8.7469 106.538 21.2662ZM178.349 1.17479C175.157 1.17479 172.467 3.03683 171.266 5.89428L146.295 65.52H163.764L167.24 55.9129H188.587L190.603 65.52H206L192.564 1.17479H178.349ZM180.793 18.5568L185.835 42.7192H172.028L180.793 18.5568ZM85.358 1.17559L71.5882 65.5192H88.2348L101.998 1.17398L85.358 1.17559ZM60.7322 1.17559L43.4056 44.9707L36.3968 7.73219C35.5744 3.57517 32.3267 1.17479 28.7201 1.17479H0.396711L0 3.04327C5.81467 4.30502 12.4212 6.34008 16.4237 8.51756C18.8731 9.84771 19.5716 11.0105 20.3763 14.1713L33.6512 65.52H51.2425L78.2124 1.17479L60.7322 1.17559Z" fill="white"/>
</svg>
