<svg width="178" height="96" viewBox="0 0 178 96" fill="none" xmlns="http://www.w3.org/2000/svg">
<path d="M92.0573 37.3757C91.9558 45.3829 99.1933 49.851 104.645 52.5078C110.247 55.2334 112.128 56.9815 112.106 59.4192C112.064 63.1496 107.638 64.7961 103.496 64.86C96.2695 64.972 92.0677 62.909 88.7274 61.3487L86.1242 73.5299C89.4756 75.0742 95.6813 76.421 102.116 76.4801C117.222 76.4801 127.105 69.0236 127.158 57.4626C127.217 42.7901 106.863 41.978 107.002 35.4198C107.05 33.4312 108.948 31.3091 113.106 30.7696C115.164 30.497 120.845 30.2884 127.287 33.2546L129.815 21.4691C126.351 20.2078 121.899 19 116.356 19C102.138 19 92.1379 26.5581 92.0573 37.3757ZM154.108 20.0152C151.349 20.0152 149.025 21.6241 147.988 24.0932L126.41 75.6144H141.504L144.508 67.3131H162.953L164.696 75.6144H178L166.39 20.0152H154.108ZM156.219 35.0346L160.575 55.9128H148.645L156.219 35.0346ZM73.756 20.0159L61.8578 75.6137H76.2417L88.1343 20.0145L73.756 20.0159ZM52.4773 20.0159L37.5059 57.8582L31.4497 25.6813C30.7391 22.0893 27.9328 20.0152 24.8164 20.0152H0.342789L0 21.6297C5.02433 22.7199 10.7328 24.4784 14.1913 26.3599C16.3079 27.5092 16.9114 28.514 17.6067 31.2452L29.0773 75.6144H44.2775L67.5816 20.0152L52.4773 20.0159Z" fill="white"/>
</svg>
